Using Number of CPU cores: 8
Number of CPU cores: 16
Using CPU
using GPUs:
[]
start: 2022-06-18 11:19:51.666442
# clients: 1000, # total samples: 458407
# positives: 117317.0, # negatives: 341090.0
final auc: 0.5466922281909985
true base_rate: 0.2559232297936114
base_rate_corr: 0.2549309284807662
auc_corrupted: 0.5466922281909985, auc_real: 0.7473088788370336
final auc: 0.5478546414367083
true base_rate: 0.2559232297936114
base_rate_corr: 0.25750502438180217
auc_corrupted: 0.5478546414367083, auc_real: 0.7518788406736241
final auc: 0.548023494056792
true base_rate: 0.2559232297936114
base_rate_corr: 0.2503082441463795
auc_corrupted: 0.548023494056792, auc_real: 0.7573168092862487
final auc: 0.547983145980762
true base_rate: 0.2559232297936114
base_rate_corr: 0.2487050010246269
auc_corrupted: 0.547983145980762, auc_real: 0.758155282874384
final auc: 0.5463721757587658
true base_rate: 0.2559232297936114
base_rate_corr: 0.2578523937248487
auc_corrupted: 0.5463721757587658, auc_real: 0.74387127792396
final auc: 0.5460516765906529
true base_rate: 0.2559232297936114
base_rate_corr: 0.2545746522314877
auc_corrupted: 0.5460516765906529, auc_real: 0.744130379655974
final auc: 0.5475006509794291
true base_rate: 0.2559232297936114
base_rate_corr: 0.2527932709850961
auc_corrupted: 0.5475006509794291, auc_real: 0.7529275728550108
final auc: 0.5459283776662637
true base_rate: 0.2559232297936114
base_rate_corr: 0.25265966739161655
auc_corrupted: 0.5459283776662637, auc_real: 0.7446373000569694
final auc: 0.5489033575985516
true base_rate: 0.2559232297936114
base_rate_corr: 0.257567372725426
auc_corrupted: 0.5489033575985516, auc_real: 0.7573598660367185
final auc: 0.5482123867472333
true base_rate: 0.2559232297936114
base_rate_corr: 0.25218760136132284
auc_corrupted: 0.5482123867472333, auc_real: 0.7571067208647221
final auc: 0.5463441370005593
true base_rate: 0.2559232297936114
base_rate_corr: 0.25159083864378157
auc_corrupted: 0.5463441370005593, auc_real: 0.7475145598698438
final auc: 0.5471226413831656
true base_rate: 0.2559232297936114
base_rate_corr: 0.2554297152297559
auc_corrupted: 0.5471226413831656, auc_real: 0.7492829071187812
final auc: 0.5473275555455106
true base_rate: 0.2559232297936114
base_rate_corr: 0.26361516205692614
auc_corrupted: 0.5473275555455106, auc_real: 0.7455245114182165
final auc: 0.5471416144973971
true base_rate: 0.2559232297936114
base_rate_corr: 0.25382647210800313
auc_corrupted: 0.5471416144973971, auc_real: 0.7503712781480406
final auc: 0.5462736999033471
true base_rate: 0.2559232297936114
base_rate_corr: 0.2544766762629362
auc_corrupted: 0.5462736999033471, auc_real: 0.7453666973616726
final auc: 0.5464315681236127
true base_rate: 0.2559232297936114
base_rate_corr: 0.2557236431354105
auc_corrupted: 0.5464315681236127, auc_real: 0.745450222056318
final auc: 0.5474261075118692
true base_rate: 0.2559232297936114
base_rate_corr: 0.25648963707135886
auc_corrupted: 0.5474261075118692, auc_real: 0.7502391842436268
final auc: 0.5468087649668639
true base_rate: 0.2559232297936114
base_rate_corr: 0.2552337632926527
auc_corrupted: 0.5468087649668639, auc_real: 0.7477415980872019
final auc: 0.5471702380362718
true base_rate: 0.2559232297936114
base_rate_corr: 0.25689935475802894
auc_corrupted: 0.5471702380362718, auc_real: 0.7486412463962361
final auc: 0.5478732573106525
true base_rate: 0.2559232297936114
base_rate_corr: 0.25924187109703417
auc_corrupted: 0.5478732573106525, auc_real: 0.7509267466966066
final auc: 0.5461960531526341
true base_rate: 0.2559232297936114
base_rate_corr: 0.2596783095024002
auc_corrupted: 0.5461960531526341, auc_real: 0.7418836211391703
final auc: 0.5472128520493663
true base_rate: 0.2559232297936114
base_rate_corr: 0.25713984122629185
auc_corrupted: 0.5472128520493663, auc_real: 0.748720687407044
final auc: 0.5462421329365996
true base_rate: 0.2559232297936114
base_rate_corr: 0.2576564417877456
auc_corrupted: 0.5462421329365996, auc_real: 0.7433024677049592
final auc: 0.547150309972825
true base_rate: 0.2559232297936114
base_rate_corr: 0.25199164942421975
auc_corrupted: 0.547150309972825, auc_real: 0.751566536777836
final auc: 0.5479401137897936
true base_rate: 0.2559232297936114
base_rate_corr: 0.25285561932871964
auc_corrupted: 0.5479401137897936, auc_real: 0.7552278574598508
final auc: 0.5459386207799172
true base_rate: 0.2559232297936114
base_rate_corr: 0.2537284961394516
auc_corrupted: 0.5459386207799172, auc_real: 0.7440414247471276
final auc: 0.5452377653004937
true base_rate: 0.2559232297936114
base_rate_corr: 0.2559908503223693
auc_corrupted: 0.5452377653004937, auc_real: 0.7389832159696923
final auc: 0.5473525588452581
true base_rate: 0.2559232297936114
base_rate_corr: 0.24898111511781748
auc_corrupted: 0.5473525588452581, auc_real: 0.7545822826598185
final auc: 0.5472451209252345
true base_rate: 0.2559232297936114
base_rate_corr: 0.25262403976668885
auc_corrupted: 0.5472451209252345, auc_real: 0.7516733394028541
final auc: 0.5466602139708195
true base_rate: 0.2559232297936114
base_rate_corr: 0.25656089232121454
auc_corrupted: 0.5466602139708195, auc_real: 0.7461553145821852
final auc: 0.5477543250333496
true base_rate: 0.2559232297936114
base_rate_corr: 0.255411901417292
auc_corrupted: 0.5477543250333496, auc_real: 0.752635608247398
final auc: 0.5478834442815175
true base_rate: 0.2559232297936114
base_rate_corr: 0.25938438159674565
auc_corrupted: 0.5478834442815175, auc_real: 0.7508947038692442
final auc: 0.5468307440197425
true base_rate: 0.2559232297936114
base_rate_corr: 0.2537730306706114
auc_corrupted: 0.5468307440197425, auc_real: 0.7487531983757546
final auc: 0.5476081326349398
true base_rate: 0.2559232297936114
base_rate_corr: 0.2586807360044209
auc_corrupted: 0.5476081326349398, auc_real: 0.7498726585907813
final auc: 0.54786853326688
true base_rate: 0.2559232297936114
base_rate_corr: 0.255376273792364
auc_corrupted: 0.54786853326688, auc_real: 0.7532619428862728
final auc: 0.5485256958786414
true base_rate: 0.2559232297936114
base_rate_corr: 0.2578078591936889
auc_corrupted: 0.5485256958786414, auc_real: 0.7552240687163971
final auc: 0.5486404538035011
true base_rate: 0.2559232297936114
base_rate_corr: 0.2603374205635651
auc_corrupted: 0.5486404538035011, auc_real: 0.7542837103855188
final auc: 0.5463174002299878
true base_rate: 0.2559232297936114
base_rate_corr: 0.26133499406154465
auc_corrupted: 0.5463174002299878, auc_real: 0.7415687009604213
final auc: 0.5467062848455316
true base_rate: 0.2559232297936114
base_rate_corr: 0.25641838182150317
auc_corrupted: 0.5467062848455316, auc_real: 0.7464838889434579
final auc: 0.5487205154192177
true base_rate: 0.2559232297936114
base_rate_corr: 0.2572467241010755
auc_corrupted: 0.5487205154192177, auc_real: 0.7565966858098161
final auc: 0.5491000879837891
true base_rate: 0.2559232297936114
base_rate_corr: 0.25942000922167335
auc_corrupted: 0.5491000879837891, auc_real: 0.757247663082565
final auc: 0.5472520870998203
true base_rate: 0.2559232297936114
base_rate_corr: 0.25818194925543103
auc_corrupted: 0.5472520870998203, auc_real: 0.7483014294231533
final auc: 0.5465392879907318
true base_rate: 0.2559232297936114
base_rate_corr: 0.2569706100078846
auc_corrupted: 0.5465392879907318, auc_real: 0.7452729794021573
final auc: 0.5479372406911635
true base_rate: 0.2559232297936114
base_rate_corr: 0.25670340282092585
auc_corrupted: 0.5479372406911635, auc_real: 0.7528045843799035
final auc: 0.5492231307271069
true base_rate: 0.2559232297936114
base_rate_corr: 0.2543519795756887
auc_corrupted: 0.5492231307271069, auc_real: 0.7610864755428582
final auc: 0.5481470282506835
true base_rate: 0.2559232297936114
base_rate_corr: 0.2552159494801889
auc_corrupted: 0.5481470282506835, auc_real: 0.7548356841842585
final auc: 0.5465338689827283
true base_rate: 0.2559232297936114
base_rate_corr: 0.2548151386997506
auc_corrupted: 0.5465338689827283, auc_real: 0.7465403931191761
final auc: 0.5475168655534426
true base_rate: 0.2559232297936114
base_rate_corr: 0.2499163402721733
auc_corrupted: 0.5475168655534426, auc_real: 0.7548560798301748
final auc: 0.5464989995365284
true base_rate: 0.2559232297936114
base_rate_corr: 0.2540936792949619
auc_corrupted: 0.5464989995365284, auc_real: 0.7467948930491669
final auc: 0.5470554399945253
true base_rate: 0.2559232297936114
base_rate_corr: 0.2625552402153229
auc_corrupted: 0.5470554399945253, auc_real: 0.7447161382714614
epoch: 0, mean_auc_tf: 0.7493574619293213, std_auc_tf: 0.0
epoch: 0, mean_auc_sk: 0.7493831215889618, std_auc_sk: 0.0
epoch 0 ends at: 2022-06-18 17:00:41.054834 , uses: 5:40:49.388392
# clients: 1000, # total samples: 458407
# positives: 117317.0, # negatives: 341090.0
final auc: 0.5517308044579271
true base_rate: 0.2559232297936114
base_rate_corr: 0.25515360113656504
auc_corrupted: 0.5517308044579271, auc_real: 0.7738460709544522
final auc: 0.5502513170943004
true base_rate: 0.2559232297936114
base_rate_corr: 0.25576817766657034
auc_corrupted: 0.5502513170943004, auc_real: 0.7656135266661122
final auc: 0.5491750910959639
true base_rate: 0.2559232297936114
base_rate_corr: 0.2576386279752817
auc_corrupted: 0.5491750910959639, auc_real: 0.7587453312026176
final auc: 0.550532680871917
true base_rate: 0.2559232297936114
base_rate_corr: 0.25412040001365777
auc_corrupted: 0.550532680871917, auc_real: 0.7681860464829888
final auc: 0.5508004051612299
true base_rate: 0.2559232297936114
base_rate_corr: 0.25485076632467857
auc_corrupted: 0.5508004051612299, auc_real: 0.7691212498398998
final auc: 0.5508983713899945
true base_rate: 0.2559232297936114
base_rate_corr: 0.2535325442023485
auc_corrupted: 0.5508983713899945, auc_real: 0.770520877179639
final auc: 0.5502506095291311
true base_rate: 0.2559232297936114
base_rate_corr: 0.25748721056933843
auc_corrupted: 0.5502506095291311, auc_real: 0.7645012114492657
final auc: 0.548919398707581
true base_rate: 0.2559232297936114
base_rate_corr: 0.251510676487694
auc_corrupted: 0.548919398707581, auc_real: 0.7613212527627645
final auc: 0.5506946506784587
true base_rate: 0.2559232297936114
base_rate_corr: 0.25762972106904963
auc_corrupted: 0.5506946506784587, auc_real: 0.7667465623383205
final auc: 0.5503160096603427
true base_rate: 0.2559232297936114
base_rate_corr: 0.2568102856957095
auc_corrupted: 0.5503160096603427, auc_real: 0.7652804632195288
final auc: 0.5494220971282052
true base_rate: 0.2559232297936114
base_rate_corr: 0.2563560334778796
auc_corrupted: 0.5494220971282052, auc_real: 0.7608557240059477
final auc: 0.5511994832516331
true base_rate: 0.2559232297936114
base_rate_corr: 0.26023053768878174
auc_corrupted: 0.5511994832516331, auc_real: 0.7677297740397045
final auc: 0.550928010805255
true base_rate: 0.2559232297936114
base_rate_corr: 0.25597303650990527
auc_corrupted: 0.550928010805255, auc_real: 0.7690555015511605
final auc: 0.5509813838307758
true base_rate: 0.2559232297936114
base_rate_corr: 0.2600078650329828
auc_corrupted: 0.5509813838307758, auc_real: 0.7667303869850015
final auc: 0.548825951641392
true base_rate: 0.2559232297936114
base_rate_corr: 0.2591528020347146
auc_corrupted: 0.548825951641392, auc_real: 0.7559747829104848
final auc: 0.5503428572113405
true base_rate: 0.2559232297936114
base_rate_corr: 0.2611123214057456
auc_corrupted: 0.5503428572113405, auc_real: 0.7627014181638944
final auc: 0.550722056045543
true base_rate: 0.2559232297936114
base_rate_corr: 0.2522321358924825
auc_corrupted: 0.550722056045543, auc_real: 0.7704600720172828
final auc: 0.5503509853114756
true base_rate: 0.2559232297936114
base_rate_corr: 0.256462916352663
auc_corrupted: 0.5503509853114756, auc_real: 0.7656893038641654
final auc: 0.5503739764712243
true base_rate: 0.2559232297936114
base_rate_corr: 0.25448558316916825
auc_corrupted: 0.5503739764712243, auc_real: 0.767102576460226
final auc: 0.5521078474144775
true base_rate: 0.2559232297936114
base_rate_corr: 0.2612013904680651
auc_corrupted: 0.5521078474144775, auc_real: 0.7718544342906535
final auc: 0.5491208723506624
true base_rate: 0.2559232297936114
base_rate_corr: 0.25004103695942076
auc_corrupted: 0.5491208723506624, auc_real: 0.7633755449436985
final auc: 0.5508522034228409
true base_rate: 0.2559232297936114
base_rate_corr: 0.25900138462877126
auc_corrupted: 0.5508522034228409, auc_real: 0.7666942187636457
final auc: 0.5497183258653917
true base_rate: 0.2559232297936114
base_rate_corr: 0.2530604781720548
auc_corrupted: 0.5497183258653917, auc_real: 0.7645596426092537
final auc: 0.5520593167870821
true base_rate: 0.2559232297936114
base_rate_corr: 0.2587430843480445
auc_corrupted: 0.5520593167870821, auc_real: 0.7731939636514296
final auc: 0.5504205894954585
true base_rate: 0.2559232297936114
base_rate_corr: 0.24892767368042587
auc_corrupted: 0.5504205894954585, auc_real: 0.7711141146116318
final auc: 0.5495741350696873
true base_rate: 0.2559232297936114
base_rate_corr: 0.2557236431354105
auc_corrupted: 0.5495741350696873, auc_real: 0.7620627076111315
final auc: 0.5499348010348915
true base_rate: 0.2559232297936114
base_rate_corr: 0.256712309727158
auc_corrupted: 0.5499348010348915, auc_real: 0.7633333297500297
final auc: 0.5507629993166286
true base_rate: 0.2559232297936114
base_rate_corr: 0.25513578732410114
auc_corrupted: 0.5507629993166286, auc_real: 0.7687345896516096
final auc: 0.5485478348343436
true base_rate: 0.2559232297936114
base_rate_corr: 0.2531495472343743
auc_corrupted: 0.5485478348343436, auc_real: 0.7582739327602259
final auc: 0.5514893977886653
true base_rate: 0.2559232297936114
base_rate_corr: 0.25689044785179715
auc_corrupted: 0.5514893977886653, auc_real: 0.7714140422135642
final auc: 0.5501972026307143
true base_rate: 0.2559232297936114
base_rate_corr: 0.2497560159599979
auc_corrupted: 0.5501972026307143, auc_real: 0.7693420248724003
final auc: 0.5503718424885571
true base_rate: 0.2559232297936114
base_rate_corr: 0.2585471324109414
auc_corrupted: 0.5503718424885571, auc_real: 0.7644628719893216
final auc: 0.5487679150191507
true base_rate: 0.2559232297936114
base_rate_corr: 0.25861838766079703
auc_corrupted: 0.5487679150191507, auc_real: 0.7559981117414015
final auc: 0.5512884873957609
true base_rate: 0.2559232297936114
base_rate_corr: 0.251688814612333
auc_corrupted: 0.5512884873957609, auc_real: 0.7738537901083868
final auc: 0.5506002194219811
true base_rate: 0.2559232297936114
base_rate_corr: 0.2524280878295857
auc_corrupted: 0.5506002194219811, auc_real: 0.7696780112479553
final auc: 0.5513642910385026
true base_rate: 0.2559232297936114
base_rate_corr: 0.2553940876048279
auc_corrupted: 0.5513642910385026, auc_real: 0.771745355286311
final auc: 0.5502961716598379
true base_rate: 0.2559232297936114
base_rate_corr: 0.2596783095024002
auc_corrupted: 0.5502961716598379, auc_real: 0.7633519381043748
final auc: 0.5510090996715272
true base_rate: 0.2559232297936114
base_rate_corr: 0.2574248622257146
auc_corrupted: 0.5510090996715272, auc_real: 0.7685341356726813
final auc: 0.5515428086255867
true base_rate: 0.2559232297936114
base_rate_corr: 0.26135280787400844
auc_corrupted: 0.5515428086255867, auc_real: 0.7688105680934291
final auc: 0.5503642488046552
true base_rate: 0.2559232297936114
base_rate_corr: 0.2518135112995804
auc_corrupted: 0.5503642488046552, auc_real: 0.7688345213167371
final auc: 0.5504403865045538
true base_rate: 0.2559232297936114
base_rate_corr: 0.25936656778428163
auc_corrupted: 0.5504403865045538, auc_real: 0.764303548034223
final auc: 0.5504127829917324
true base_rate: 0.2559232297936114
base_rate_corr: 0.25323861629669386
auc_corrupted: 0.5504127829917324, auc_real: 0.7681359541844881
final auc: 0.5509245209094544
true base_rate: 0.2559232297936114
base_rate_corr: 0.25725563100730736
auc_corrupted: 0.5509245209094544, auc_real: 0.7681987496793033
final auc: 0.5498359048589705
true base_rate: 0.2559232297936114
base_rate_corr: 0.258199763067895
auc_corrupted: 0.5498359048589705, auc_real: 0.761867708299714
final auc: 0.5504094956381805
true base_rate: 0.2559232297936114
base_rate_corr: 0.2572467241010755
auc_corrupted: 0.5504094956381805, auc_real: 0.7654920499670935
final auc: 0.550019283836144
true base_rate: 0.2559232297936114
base_rate_corr: 0.25464590748134336
auc_corrupted: 0.550019283836144, auc_real: 0.7651169664884978
final auc: 0.5506605941007409
true base_rate: 0.2559232297936114
base_rate_corr: 0.25193820798682787
auc_corrupted: 0.5506605941007409, auc_real: 0.7703316403294851
final auc: 0.5511880857554547
true base_rate: 0.2559232297936114
base_rate_corr: 0.25318517485930225
auc_corrupted: 0.5511880857554547, auc_real: 0.7722958732514142
final auc: 0.5511357044575158
true base_rate: 0.2559232297936114
base_rate_corr: 0.25070905492681766
auc_corrupted: 0.5511357044575158, auc_real: 0.7737141108617936
final auc: 0.550066786897282
true base_rate: 0.2559232297936114
base_rate_corr: 0.2560175710410652
auc_corrupted: 0.550066786897282, auc_real: 0.7644768265251243
epoch: 1, mean_auc_tf: 0.7664340734481812, std_auc_tf: 0.0
epoch: 1, mean_auc_sk: 0.7664771312694274, std_auc_sk: 0.0
epoch 1 ends at: 2022-06-18 22:46:31.150821 , uses: 11:26:39.484379
# clients: 1000, # total samples: 458407
# positives: 117317.0, # negatives: 341090.0
final auc: 0.5498605601213981
true base_rate: 0.2559232297936114
base_rate_corr: 0.2548329525122146
auc_corrupted: 0.5498605601213981, auc_real: 0.7641538957226377
final auc: 0.5510075656963187
true base_rate: 0.2559232297936114
base_rate_corr: 0.2558661536351219
auc_corrupted: 0.5510075656963187, auc_real: 0.7695462169863799
final auc: 0.5513037527205249
true base_rate: 0.2559232297936114
base_rate_corr: 0.25551878429207536
auc_corrupted: 0.5513037527205249, auc_real: 0.771342083619616
final auc: 0.5509854702736763
true base_rate: 0.2559232297936114
base_rate_corr: 0.25501999754308574
auc_corrupted: 0.5509854702736763, auc_real: 0.7699891830544775
final auc: 0.5518259114606402
true base_rate: 0.2559232297936114
base_rate_corr: 0.25536736688613204
auc_corrupted: 0.5518259114606402, auc_real: 0.774205558531464
final auc: 0.5507368892322042
true base_rate: 0.2559232297936114
base_rate_corr: 0.2576208141628177
auc_corrupted: 0.5507368892322042, auc_real: 0.7669745607914701
final auc: 0.5490418998724966
true base_rate: 0.2559232297936114
base_rate_corr: 0.2566232406648384
auc_corrupted: 0.5490418998724966, auc_real: 0.7586806130262247
final auc: 0.5503590758221052
true base_rate: 0.2559232297936114
base_rate_corr: 0.2590281053474672
auc_corrupted: 0.5503590758221052, auc_real: 0.7640911186878567
final auc: 0.551489162886627
true base_rate: 0.2559232297936114
base_rate_corr: 0.2542183759822095
auc_corrupted: 0.551489162886627, auc_real: 0.7731960431355579
final auc: 0.5522737709933818
true base_rate: 0.2559232297936114
base_rate_corr: 0.2574159553194827
auc_corrupted: 0.5522737709933818, auc_real: 0.7751978484389289
final auc: 0.551685990950723
true base_rate: 0.2559232297936114
base_rate_corr: 0.26147750456125585
auc_corrupted: 0.551685990950723, auc_real: 0.7694781477545781
final auc: 0.5518570256827874
true base_rate: 0.2559232297936114
base_rate_corr: 0.25613336082208066
auc_corrupted: 0.5518570256827874, auc_real: 0.7738562778488618
final auc: 0.5513590366635502
true base_rate: 0.2559232297936114
base_rate_corr: 0.2529001538598794
auc_corrupted: 0.5513590366635502, auc_real: 0.7733994361821166
final auc: 0.5509767155108661
true base_rate: 0.2559232297936114
base_rate_corr: 0.25947345065906524
auc_corrupted: 0.5509767155108661, auc_real: 0.7670457177968111
final auc: 0.5517356116912207
true base_rate: 0.2559232297936114
base_rate_corr: 0.25550097047961157
auc_corrupted: 0.5517356116912207, auc_real: 0.7736381062620871
final auc: 0.5513029437243159
true base_rate: 0.2559232297936114
base_rate_corr: 0.25689935475802894
auc_corrupted: 0.5513029437243159, auc_real: 0.7704253445064456
final auc: 0.5504575891550517
true base_rate: 0.2559232297936114
base_rate_corr: 0.25918842965964256
auc_corrupted: 0.5504575891550517, auc_real: 0.7645062636019787
final auc: 0.5514597182578191
true base_rate: 0.2559232297936114
base_rate_corr: 0.2544054210130805
auc_corrupted: 0.5514597182578191, auc_real: 0.7729136207646293
final auc: 0.5529287801793639
true base_rate: 0.2559232297936114
base_rate_corr: 0.25943782303413726
auc_corrupted: 0.5529287801793639, auc_real: 0.7772953483129571
final auc: 0.553054858091474
true base_rate: 0.2559232297936114
base_rate_corr: 0.2584758771610857
auc_corrupted: 0.553054858091474, auc_real: 0.7785969555842449
final auc: 0.551339456526943
true base_rate: 0.2559232297936114
base_rate_corr: 0.25342566132756517
auc_corrupted: 0.551339456526943, auc_real: 0.7729377085915439
final auc: 0.5513465595958476
true base_rate: 0.2559232297936114
base_rate_corr: 0.2544232348255444
auc_corrupted: 0.5513465595958476, auc_real: 0.7723015098617643
final auc: 0.5500124600921737
true base_rate: 0.2559232297936114
base_rate_corr: 0.25334549917147736
auc_corrupted: 0.5500124600921737, auc_real: 0.7659359662821043
final auc: 0.5519756879599114
true base_rate: 0.2559232297936114
base_rate_corr: 0.25492202157453425
auc_corrupted: 0.5519756879599114, auc_real: 0.7752991536787915
final auc: 0.5513812647836545
true base_rate: 0.2559232297936114
base_rate_corr: 0.25102970355116816
auc_corrupted: 0.5513812647836545, auc_real: 0.7748055068273639
final auc: 0.5500604950760107
true base_rate: 0.2559232297936114
base_rate_corr: 0.25231229804857025
auc_corrupted: 0.5500604950760107, auc_real: 0.7668788813740512
final auc: 0.5517276794390881
true base_rate: 0.2559232297936114
base_rate_corr: 0.25575036385410643
auc_corrupted: 0.5517276794390881, auc_real: 0.7734290596313503
final auc: 0.5519916637402932
true base_rate: 0.2559232297936114
base_rate_corr: 0.2610945075932818
auc_corrupted: 0.5519916637402932, auc_real: 0.7713167039110633
final auc: 0.5505164055928841
true base_rate: 0.2559232297936114
base_rate_corr: 0.2493730189920237
auc_corrupted: 0.5505164055928841, auc_real: 0.7713198680082684
final auc: 0.5521058880875783
true base_rate: 0.2559232297936114
base_rate_corr: 0.2545123038878641
auc_corrupted: 0.5521058880875783, auc_real: 0.7762676287095679
final auc: 0.551179522944958
true base_rate: 0.2559232297936114
base_rate_corr: 0.26024835150124564
auc_corrupted: 0.551179522944958, auc_real: 0.7676140802020013
final auc: 0.5511066342599276
true base_rate: 0.2559232297936114
base_rate_corr: 0.252125253017699
auc_corrupted: 0.5511066342599276, auc_real: 0.7725837650681369
final auc: 0.5511749252655456
true base_rate: 0.2559232297936114
base_rate_corr: 0.251074238082328
auc_corrupted: 0.5511749252655456, auc_real: 0.7736711313128726
final auc: 0.5513670729663006
true base_rate: 0.2559232297936114
base_rate_corr: 0.25723781719484345
auc_corrupted: 0.5513670729663006, auc_real: 0.7705411676353231
final auc: 0.55064124197306
true base_rate: 0.2559232297936114
base_rate_corr: 0.2583244597551424
auc_corrupted: 0.55064124197306, auc_real: 0.7660196023886316
final auc: 0.552195750080434
true base_rate: 0.2559232297936114
base_rate_corr: 0.2584847840673178
auc_corrupted: 0.552195750080434, auc_real: 0.7740798185578485
final auc: 0.5512573433106739
true base_rate: 0.2559232297936114
base_rate_corr: 0.2557236431354105
auc_corrupted: 0.5512573433106739, auc_real: 0.7709606159354268
final auc: 0.5522346015909732
true base_rate: 0.2559232297936114
base_rate_corr: 0.2497025745226063
auc_corrupted: 0.5522346015909732, auc_real: 0.780312242022011
final auc: 0.549732198938889
true base_rate: 0.2559232297936114
base_rate_corr: 0.2516531869874053
auc_corrupted: 0.549732198938889, auc_real: 0.7655678267464192
final auc: 0.5520702194183685
true base_rate: 0.2559232297936114
base_rate_corr: 0.2604799310632765
auc_corrupted: 0.5520702194183685, auc_real: 0.7721219393835229
final auc: 0.5504804684871003
true base_rate: 0.2559232297936114
base_rate_corr: 0.25399570332641036
auc_corrupted: 0.5504804684871003, auc_real: 0.7679916673271494
final auc: 0.5495119535099998
true base_rate: 0.2559232297936114
base_rate_corr: 0.2552872047300445
auc_corrupted: 0.5495119535099998, auc_real: 0.7620141946622566
final auc: 0.5517013635663512
true base_rate: 0.2559232297936114
base_rate_corr: 0.2546726282000393
auc_corrupted: 0.5517013635663512, auc_real: 0.7740144314685053
final auc: 0.5505751550885277
true base_rate: 0.2559232297936114
base_rate_corr: 0.25336331298394127
auc_corrupted: 0.5505751550885277, auc_real: 0.7689161204746673
final auc: 0.5513944715414625
true base_rate: 0.2559232297936114
base_rate_corr: 0.256462916352663
auc_corrupted: 0.5513944715414625, auc_real: 0.7711955144839179
final auc: 0.5519719367155425
true base_rate: 0.2559232297936114
base_rate_corr: 0.25924187109703417
auc_corrupted: 0.5519719367155425, auc_real: 0.7724098950470024
final auc: 0.5496306187657907
true base_rate: 0.2559232297936114
base_rate_corr: 0.25583943291642586
auc_corrupted: 0.5496306187657907, auc_real: 0.7622869699720678
final auc: 0.5511358986637219
true base_rate: 0.2559232297936114
base_rate_corr: 0.2575228381942661
auc_corrupted: 0.5511358986637219, auc_real: 0.7691378642994516
final auc: 0.5518134940075268
true base_rate: 0.2559232297936114
base_rate_corr: 0.25273092264147223
auc_corrupted: 0.5518134940075268, auc_real: 0.7759352118106143
final auc: 0.5514116443717244
true base_rate: 0.2559232297936114
base_rate_corr: 0.25712202741382795
auc_corrupted: 0.5514116443717244, auc_real: 0.7708519249757653
epoch: 2, mean_auc_tf: 0.7701895236968994, std_auc_tf: 0.0
epoch: 2, mean_auc_sk: 0.7702185466609048, std_auc_sk: 0.0
epoch 2 ends at: 2022-06-19 04:14:03.539372 , uses: 16:54:11.872930
